<?xml version="1.0" standalone="no"?>
<!DOCTYPE svg PUBLIC "-//W3C//DTD SVG 20010904//EN"
 "http://www.w3.org/TR/2001/REC-SVG-20010904/DTD/svg10.dtd">
<svg version="1.0" xmlns="http://www.w3.org/2000/svg"
 width="800.000000pt" height="800.000000pt" viewBox="0 0 800.000000 800.000000"
 preserveAspectRatio="xMidYMid meet">
<metadata>
Created by potrace 1.14, written by Peter Selinger 2001-2017
</metadata>
<g transform="translate(0.000000,800.000000) scale(0.100000,-0.100000)"
fill="#000000" stroke="none">
<path d="M3975 7001 c-93 -58 -176 -236 -206 -446 -31 -212 -81 -349 -178
-480 -40 -54 -51 -78 -51 -107 0 -20 -21 -94 -47 -163 l-47 -127 -50 55 c-53
57 -188 148 -260 174 -51 18 -154 9 -207 -18 -47 -24 -119 -98 -119 -124 -1
-25 -72 -138 -123 -194 l-37 -41 -31 16 c-41 21 -75 11 -98 -27 -18 -29 -19
-30 -26 -10 -3 11 -49 61 -103 111 -134 128 -235 176 -306 146 -44 -18 -60
-62 -76 -203 l-13 -112 -38 20 c-48 24 -76 24 -115 0 -43 -26 -78 -129 -76
-219 2 -90 48 -396 71 -472 90 -299 186 -543 295 -745 9 -16 41 -80 71 -142
l55 -112 -43 13 c-58 18 -160 58 -245 95 -107 47 -161 38 -149 -26 11 -63 166
-392 231 -493 80 -122 182 -261 254 -345 29 -33 52 -63 52 -67 0 -9 -57 -26
-115 -34 -73 -9 -150 9 -424 96 -321 102 -565 174 -671 199 -178 41 -728 96
-900 90 -87 -4 -93 -5 -117 -33 -23 -27 -25 -36 -21 -101 10 -155 85 -226 414
-392 265 -134 377 -182 639 -269 467 -155 756 -207 1317 -235 232 -11 865 -8
918 6 14 3 0 -5 -30 -18 -30 -13 -102 -47 -159 -76 -416 -210 -467 -298 -596
-1034 -64 -362 -108 -539 -167 -667 -16 -36 -40 -92 -53 -125 -12 -33 -34 -82
-49 -109 -43 -81 -33 -122 36 -151 37 -15 38 -14 115 26 99 52 116 65 265 204
124 117 214 185 375 285 65 40 125 92 228 196 226 227 354 403 486 669 99 201
132 351 95 440 -31 72 -55 195 -40 195 4 0 71 -14 151 -30 80 -17 219 -37 310
-45 l165 -15 45 -38 c25 -20 128 -138 230 -262 208 -252 261 -310 348 -380 80
-64 166 -106 267 -132 75 -19 101 -20 268 -15 346 11 665 83 1190 269 124 43
310 106 414 138 104 32 201 67 215 78 33 24 49 56 53 105 3 38 3 39 -52 60
l-55 22 3 53 c8 133 -95 206 -598 422 -358 155 -609 239 -820 277 l-45 8 130
34 c245 63 708 242 925 358 58 31 175 91 260 134 258 129 461 276 526 380 107
168 38 251 -186 227 -36 -4 -150 -12 -253 -18 -347 -20 -772 -88 -914 -146
-72 -30 -99 -35 -245 -47 -89 -8 -164 -13 -166 -12 -1 1 25 41 59 89 85 123
125 190 241 404 168 311 200 391 298 751 109 402 117 449 80 520 -29 57 -64
81 -119 81 -58 0 -98 -24 -141 -84 -19 -25 -37 -46 -42 -46 -10 0 -67 -62 -68
-74 0 -5 -15 -27 -33 -50 -55 -69 -129 -186 -188 -297 -31 -58 -71 -129 -90
-158 l-34 -52 -6 42 c-6 42 -29 69 -58 69 -30 -1 -59 -35 -111 -130 -91 -163
-335 -525 -338 -501 -2 11 15 58 37 104 50 102 142 364 175 495 35 140 49 279
44 464 -3 142 -7 169 -26 212 -25 56 -46 75 -82 76 -36 0 -62 -21 -117 -96
l-48 -66 -7 128 c-11 184 -54 397 -98 484 -22 42 -76 95 -108 105 -35 10 -87
-29 -136 -101 l-42 -63 -21 42 c-50 103 -197 282 -257 314 -55 29 -82 13 -205
-118 l-114 -121 -14 27 c-23 43 -192 550 -208 623 -8 41 -120 317 -139 347
-34 51 -127 70 -181 36z m57 -2742 c-4 -75 -2 -91 9 -87 8 3 21 36 30 74 l17
69 0 -65 c0 -36 -3 -91 -7 -122 l-6 -58 -45 30 c-24 16 -58 32 -74 36 l-29 6
6 94 c3 51 8 98 12 104 3 5 25 10 49 10 l42 0 -4 -91z m301 49 c29 -14 37 -38
12 -38 -8 0 -15 -3 -15 -8 0 -4 -9 -13 -20 -20 -19 -11 -20 -10 -20 33 0 49 3
51 43 33z m-632 -58 c3 -25 9 -61 12 -80 7 -33 4 -37 -33 -62 -21 -15 -56 -53
-77 -85 -20 -32 -38 -60 -40 -62 -1 -2 -26 14 -55 37 -29 22 -70 48 -90 58
-21 10 -38 20 -38 23 2 19 50 88 67 96 12 6 28 16 36 23 12 10 18 4 39 -40 14
-29 29 -62 33 -73 10 -29 38 79 32 127 -6 44 7 65 48 77 50 15 59 10 66 -39z"/>
</g>
</svg>
